<svg xmlns="http://www.w3.org/2000/svg" viewBox="0 0 581.99 184.64"><defs><style>.cls-1{fill:#00558c;}.cls-2{fill:#fff;}</style></defs><g id="Layer_2" data-name="Layer 2"><g id="Layer_1-2" data-name="Layer 1"><polygon class="cls-1" points="261.49 57.35 261.49 87.03 227.43 87.03 227.43 57.35 214.88 57.35 214.88 128.74 227.43 128.74 227.43 98.65 261.49 98.65 261.49 128.74 274.03 128.74 274.03 57.35 261.49 57.35"/><path class="cls-1" d="M288.71,98.45V57.35h12.55V97.94c0,13.26,6.83,20.29,18.05,20.29s17.95-6.62,17.95-19.78V57.35H349.8V97.84c0,21.31-12,32-30.7,32s-30.39-10.71-30.39-31.41"/><path class="cls-1" d="M364.48,57.35H396.3c9,0,16,2.65,20.6,7.14a21.6,21.6,0,0,1,5.91,15.4v.2c0,11.73-7,18.77-16.93,21.62l19.28,27H410.27l-17.54-24.89H377v24.89H364.48Zm30.9,35.39c9,0,14.68-4.69,14.68-11.93V80.6c0-7.65-5.5-11.83-14.78-11.83H377v24Z"/><path class="cls-1" d="M432.5,93.25V93c0-20.09,15.5-36.91,37.42-36.91s37.23,16.62,37.23,36.71V93c0,20.1-15.5,36.92-37.43,36.92S432.5,113.34,432.5,93.25m61.49,0V93c0-13.86-10.09-25.39-24.27-25.39S445.65,79,445.65,92.84V93c0,13.87,10.1,25.3,24.27,25.3S494,107.12,494,93.25"/><polygon class="cls-1" points="519.78 57.35 531.41 57.35 569.65 106.71 569.65 57.35 581.99 57.35 581.99 128.74 571.49 128.74 532.12 77.95 532.12 128.74 519.78 128.74 519.78 57.35"/><path class="cls-1" d="M137.35,184.64H47.29A47.34,47.34,0,0,1,0,137.35V47.29A47.34,47.34,0,0,1,47.29,0h90.06a47.34,47.34,0,0,1,47.29,47.29v90.06A47.34,47.34,0,0,1,137.35,184.64Z"/><path class="cls-2" d="M78.86,101.33v27.39H59.68V56.13h7.13V25.45H52.74A23.73,23.73,0,0,0,29.08,49.11v80.52A23.74,23.74,0,0,0,52.74,153.3H82a23.74,23.74,0,0,0,23.67-23.67v-28.3Z"/><path class="cls-2" d="M131.89,31.34H102.6A23.74,23.74,0,0,0,78.93,55V83.08H105.7V56.13h19.73v72.59H114.74v30.47h17.15a23.74,23.74,0,0,0,23.67-23.67V55a23.74,23.74,0,0,0-23.67-23.66"/></g></g></svg>